<svg width="723" height="156" viewBox="0 0 723 156" fill="none" xmlns="http://www.w3.org/2000/svg">
<rect width="241" height="155" transform="translate(0 0.5)" fill="white"/>
<rect x="111" y="0.5" width="19" height="3" fill="#01783F" fill-opacity="0.2"/>
<rect x="97" y="19.5" width="47" height="3" fill="#01783F" fill-opacity="0.2"/>
<rect x="84" y="38.5" width="73" height="4" fill="#01783F" fill-opacity="0.2"/>
<rect x="74" y="58.5" width="93" height="4" fill="#01783F" fill-opacity="0.2"/>
<rect x="60" y="78.5" width="121" height="5" fill="#01783F" fill-opacity="0.2"/>
<rect x="43" y="99.5" width="155" height="6" fill="#01783F" fill-opacity="0.2"/>
<rect x="25" y="121.5" width="191" height="8" fill="#01783F" fill-opacity="0.2"/>
<rect y="145.5" width="241" height="10" fill="#01783F" fill-opacity="0.2"/>
<rect width="241" height="155" transform="matrix(-1 0 0 -1 482 155.5)" fill="white"/>
<rect x="371" y="155.5" width="19" height="3" transform="rotate(-180 371 155.5)" fill="#01783F" fill-opacity="0.2"/>
<rect x="385" y="136.5" width="47" height="3" transform="rotate(-180 385 136.5)" fill="#01783F" fill-opacity="0.2"/>
<rect x="398" y="117.5" width="73" height="4" transform="rotate(-180 398 117.5)" fill="#01783F" fill-opacity="0.2"/>
<rect x="408" y="97.5" width="93" height="4" transform="rotate(-180 408 97.5)" fill="#01783F" fill-opacity="0.2"/>
<rect x="422" y="77.5" width="121" height="5" transform="rotate(-180 422 77.5)" fill="#01783F" fill-opacity="0.2"/>
<rect x="439" y="56.5" width="155" height="6" transform="rotate(-180 439 56.5)" fill="#01783F" fill-opacity="0.2"/>
<rect x="457" y="34.5" width="191" height="8" transform="rotate(-180 457 34.5)" fill="#01783F" fill-opacity="0.2"/>
<rect x="482" y="10.5" width="241" height="10" transform="rotate(-180 482 10.5)" fill="#01783F" fill-opacity="0.2"/>
<rect width="241" height="155" transform="translate(482 0.5)" fill="white"/>
<rect x="593" y="0.5" width="19" height="3" fill="#01783F" fill-opacity="0.2"/>
<rect x="579" y="19.5" width="47" height="3" fill="#01783F" fill-opacity="0.2"/>
<rect x="566" y="38.5" width="73" height="4" fill="#01783F" fill-opacity="0.2"/>
<rect x="556" y="58.5" width="93" height="4" fill="#01783F" fill-opacity="0.2"/>
<rect x="542" y="78.5" width="121" height="5" fill="#01783F" fill-opacity="0.2"/>
<rect x="525" y="99.5" width="155" height="6" fill="#01783F" fill-opacity="0.2"/>
<rect x="507" y="121.5" width="191" height="8" fill="#01783F" fill-opacity="0.2"/>
<rect x="482" y="145.5" width="241" height="10" fill="#01783F" fill-opacity="0.2"/>
</svg>
