<svg width="35" height="31" viewBox="0 0 35 31" fill="none" xmlns="http://www.w3.org/2000/svg">
<path d="M12.1192 15.5H6.74447V11.0715C6.74447 8.62882 8.67262 6.64292 11.0442 6.64292H11.5817C11.7936 6.64344 12.0035 6.60084 12.1993 6.51756C12.3952 6.43429 12.5731 6.31198 12.723 6.15766C12.8728 6.00334 12.9915 5.82006 13.0724 5.61833C13.1532 5.4166 13.1946 5.20041 13.1941 4.98217V1.66075C13.1946 1.44251 13.1532 1.22632 13.0724 1.02459C12.9915 0.822863 12.8728 0.639576 12.723 0.485256C12.5731 0.330938 12.3952 0.20863 12.1993 0.125355C12.0035 0.0420799 11.7936 -0.000520706 11.5817 1.90735e-06H11.0442C5.1052 1.90735e-06 0.294838 4.95446 0.294838 11.0714V27.6786C0.294838 29.5123 1.73928 31 3.51965 31H12.1192C13.8995 31 15.344 29.5123 15.344 27.6786V18.8215C15.344 16.9878 13.8995 15.5 12.1192 15.5ZM31.4681 15.5L26.0934 15.5V11.0715C26.0934 8.62882 28.0215 6.64292 30.3931 6.64292H30.9306C31.1424 6.64344 31.3523 6.60084 31.5482 6.51756C31.7441 6.43429 31.922 6.31198 32.0719 6.15766C32.2217 6.00334 32.3404 5.82006 32.4213 5.61833C32.5021 5.4166 32.5435 5.20041 32.543 4.98217V1.66075C32.5435 1.44251 32.5021 1.22632 32.4213 1.02459C32.3404 0.822863 32.2217 0.639576 32.0719 0.485256C31.922 0.330938 31.7441 0.20863 31.5482 0.125355C31.3523 0.0420799 31.1424 -0.000520706 30.9306 1.90735e-06H30.3931C24.4541 1.90735e-06 19.6437 4.95446 19.6437 11.0714V27.6786C19.6437 29.5123 21.0882 31 22.8685 31H31.4681C33.2484 31 34.6929 29.5123 34.6929 27.6786V18.8215C34.6929 16.9878 33.2484 15.5 31.4681 15.5Z" fill="black"/>
</svg>
